<svg xmlns="http://www.w3.org/2000/svg" width="66.857" height="65.76" viewBox="0 0 66.857 65.76">
  <path id="Path_4784" data-name="Path 4784" d="M71.466,29.416,70.5,24.4a1.487,1.487,0,0,0-1.257-1.191l-2.47-.339-3.827-3.3a1.487,1.487,0,0,0-.972-.362H58.225l-1.811-1.1a1.415,1.415,0,0,0-.166-.087L54.76,17.36,50.99,15.334a1.487,1.487,0,0,0-1.593.117l-3.046,2.271-.629.077-.088-.365a1.489,1.489,0,0,0-.828-1l1.245-.623A1.49,1.49,0,0,0,46.778,15l.513-1.368a1.487,1.487,0,0,0-.1-1.263L44.338,7.41a1.488,1.488,0,0,0-1.262-.746h-.027a1.487,1.487,0,0,0-1.261.7l-2.043,3.268-2.96-.472a1.469,1.469,0,0,0-.235-.019,1.487,1.487,0,0,0-1.2.6l-.462.628-3.1.658L30.515,10.4V7.868a1.487,1.487,0,0,0-2.1-1.353L24.523,8.282l-2.437-.7a1.487,1.487,0,0,0-1.7,2.174l1.168,2.014-.64.883H19.079l-.88-.842a1.487,1.487,0,0,0-1.027-.413c-.045,0-.091,0-.137.006l-3.7.342a1.486,1.486,0,0,0-1.312,1.148l-.8,3.477a1.489,1.489,0,0,0,.464,1.447l.856.757-.549,3.052a1.485,1.485,0,0,0-.362.119L7.811,23.568a1.485,1.485,0,0,0-.77.871L5.731,28.372a1.488,1.488,0,0,0,.249,1.4l2.508,3.135a1.491,1.491,0,0,0,.748.5l2.289.661V34.2a1.487,1.487,0,0,0,1.335,1.479l3.876.4a1.477,1.477,0,0,0,1.036-.284l2.2-1.63.232,1.416a1.485,1.485,0,0,0,.97,1.16l5.747,2.038,1.045,1.839.35,1.5a1.487,1.487,0,0,0,1.448,1.149h1.461l.232.926a1.49,1.49,0,0,0,.269.552l.37.475L31.507,47.9a1.48,1.48,0,0,0-.01.591l.57,3.078a1.489,1.489,0,0,0,1.126,1.178l2.258.524.211,1.055a1.488,1.488,0,0,0,1.021,1.13l.432.133v1.067a1.488,1.488,0,0,0,.34.946l.122.148-4.294,5.325a1.487,1.487,0,0,0,.673,2.339l1.423.491L38.4,68.237l.194.282v1.134a1.487,1.487,0,0,0,2.663.91L43.2,68.056a1.477,1.477,0,0,0,.239-.454l.091-.284a1.484,1.484,0,0,0,.762-.528l1.6-2.109c.029-.038.056-.077.081-.118L48.7,60.117a1.491,1.491,0,0,0,.212-.62l.306-2.842,6.185-2.665,3.847-1.471a1.488,1.488,0,0,0,.76-.651l3.308-5.789.568-.993a1.493,1.493,0,0,0,.193-.641l.422-6.492,3.014-3.32,3.588-3.93A1.5,1.5,0,0,0,71.466,29.416Zm-5.051,4.215-3.363,3.7-.456,7.01-3.876,6.783L54.846,52.61l-7.01,3.02-.4,3.7L44.7,63.781l-1.6,2.109V63.781l-1.083,3.363-1.938,2.508v-1.6L39.5,67.2l-3.4-2.622-1.653-.57,5.054-6.27L38.6,56.656V54.49l-1.482-.456-.4-1.995L33.53,51.3l-.57-3.078.741-3.363-.8-1.026-.513-2.052H29.768l-.4-1.71-1.425-2.508-6.27-2.222-.627-3.818L16.885,34.6l-3.876-.4V32.263l-.8.456-2.565-.741L7.139,28.843,8.45,24.91l3.818-1.824h.969l.912-5.073L12.667,16.7l.8-3.477,3.7-.342,1.311,1.254h3.192l1.653-2.28L21.673,9.008l2.964.855,4.389-1.995v3.049l2.166,2.764,4.56-.969.8-1.083,3.933.627,2.565-4.1,2.85,4.959-.513,1.368-2.052,1.026L42.592,17.9l1.6-.114.4,1.653,2.337-.285,3.363-2.508L54.1,18.7l1.539.684,2.166,1.311H61.97l4.161,3.591,2.907.4.969,5.016Z" transform="translate(-5.141 -5.881)" fill="#dd0123" stroke="#dd0023" stroke-width="1"/>
</svg>
