<svg xmlns="http://www.w3.org/2000/svg" width="51.992" height="29.316" viewBox="0 0 51.992 29.316">
  <g id="Group_101" data-name="Group 101" transform="translate(-1244 -1284)">
    <g id="Group_98" data-name="Group 98" transform="translate(1244 1284)">
      <g id="Group_85" data-name="Group 85" transform="translate(12.076 11.028)">
        <path id="Path_3671" data-name="Path 3671" d="M16.616,20.93H15l-.032-.807V13.67h1.646Z" transform="translate(-14.97 -13.67)" fill="#dd0023"/>
      </g>
      <g id="Group_86" data-name="Group 86" transform="translate(17.748 11.028)">
        <path id="Path_3672" data-name="Path 3672" d="M38.5,20.93H22V13.67H38.489v7.26ZM23.613,19.317H36.876V15.283H23.613Z" transform="translate(-22 -13.67)" fill="#dd0023"/>
      </g>
      <g id="Group_87" data-name="Group 87" transform="translate(38.27 11.028)">
        <path id="Path_3673" data-name="Path 3673" d="M49.086,20.93H47.472l-.032-.807V13.67h1.646Z" transform="translate(-47.44 -13.67)" fill="#dd0023"/>
      </g>
      <g id="Group_88" data-name="Group 88" transform="translate(43.941 11.028)">
        <path id="Path_3674" data-name="Path 3674" d="M58.891,20.93H54.47V13.67h4.421a3.63,3.63,0,0,1,0,7.26Zm-2.807-1.613h2.807a2.017,2.017,0,0,0,0-4.034H56.083Z" transform="translate(-54.47 -13.67)" fill="#dd0023"/>
      </g>
      <g id="Group_89" data-name="Group 89" transform="translate(0 11.028)">
        <path id="Path_3675" data-name="Path 3675" d="M8.051,20.93H3.63a3.63,3.63,0,1,1,0-7.26H8.051ZM3.63,15.283a2.017,2.017,0,0,0,0,4.034H6.438V15.283Z" transform="translate(0 -13.67)" fill="#dd0023"/>
      </g>
      <g id="Group_90" data-name="Group 90" transform="translate(12.101)">
        <path id="Path_3676" data-name="Path 3676" d="M22.26,11.834H20.647V3.63a2.017,2.017,0,1,0-4.034,0v8.2H15V3.63a3.63,3.63,0,0,1,7.26,0Z" transform="translate(-15)" fill="#dd0023"/>
      </g>
      <g id="Group_91" data-name="Group 91" transform="translate(12.109 17.481)">
        <path id="Path_3677" data-name="Path 3677" d="M18.64,33.5a3.636,3.636,0,0,1-3.63-3.63v-8.2h1.613v8.2a2.017,2.017,0,1,0,4.034,0v-8.2H22.27v8.2A3.641,3.641,0,0,1,18.64,33.5Z" transform="translate(-15.01 -21.67)" fill="#dd0023"/>
      </g>
      <g id="Group_92" data-name="Group 92" transform="translate(6.429 17.473)">
        <path id="Path_3678" data-name="Path 3678" d="M11.6,29.687a3.636,3.636,0,0,1-3.63-3.63v-4.4H9.583v4.4a2.017,2.017,0,0,0,4.034,0v-4.4H15.23v4.4A3.636,3.636,0,0,1,11.6,29.687Z" transform="translate(-7.97 -21.66)" fill="#dd0023"/>
      </g>
      <g id="Group_93" data-name="Group 93" transform="translate(6.429 3.808)">
        <path id="Path_3679" data-name="Path 3679" d="M15.23,12.747H13.617V8.35a2.017,2.017,0,0,0-4.034,0v4.4H7.97V8.35a3.63,3.63,0,1,1,7.26,0Z" transform="translate(-7.97 -4.72)" fill="#dd0023"/>
      </g>
      <g id="Group_94" data-name="Group 94" transform="translate(32.623 17.481)">
        <path id="Path_3680" data-name="Path 3680" d="M44.07,33.5a3.636,3.636,0,0,1-3.63-3.63v-8.2h1.613v8.2a2.017,2.017,0,1,0,4.034,0v-8.2H47.7v8.2A3.636,3.636,0,0,1,44.07,33.5Z" transform="translate(-40.44 -21.67)" fill="#dd0023"/>
      </g>
      <g id="Group_95" data-name="Group 95" transform="translate(32.623)">
        <path id="Path_3681" data-name="Path 3681" d="M47.7,11.834H46.087V3.63a2.017,2.017,0,1,0-4.034,0v8.2H40.44V3.63a3.63,3.63,0,0,1,7.26,0Z" transform="translate(-40.44)" fill="#dd0023"/>
      </g>
      <g id="Group_96" data-name="Group 96" transform="translate(38.302 17.473)">
        <path id="Path_3682" data-name="Path 3682" d="M51.11,29.687a3.636,3.636,0,0,1-3.63-3.63v-4.4h1.613v4.4a2.017,2.017,0,0,0,4.034,0v-4.4H54.74v4.4A3.641,3.641,0,0,1,51.11,29.687Z" transform="translate(-47.48 -21.66)" fill="#dd0023"/>
      </g>
      <g id="Group_97" data-name="Group 97" transform="translate(38.294 3.808)">
        <path id="Path_3683" data-name="Path 3683" d="M54.73,12.747H53.117V8.35a2.017,2.017,0,1,0-4.034,0v4.4H47.47V8.35a3.63,3.63,0,1,1,7.26,0Z" transform="translate(-47.47 -4.72)" fill="#dd0023"/>
      </g>
    </g>
  </g>
</svg>
