<svg xmlns="http://www.w3.org/2000/svg" width="46.143" height="46.9" viewBox="0 0 46.143 46.9">
  <path id="Path_3669" data-name="Path 3669" d="M22.266.2a22.052,22.052,0,0,0-14.9,38.32l-.024.019.717.6c.048.039.1.072.144.111.38.318.775.616,1.175.905.13.1.26.188.39.279.429.294.867.578,1.319.843.1.058.2.111.294.169.491.279,1,.544,1.507.785.039.019.077.034.116.053a21.816,21.816,0,0,0,5.335,1.69l.149.029c.583.1,1.17.178,1.762.236.072,0,.144.01.217.019.592.048,1.189.082,1.8.082a.8.8,0,0,0,0-1.608c-.51,0-1.016-.024-1.521-.063-.087,0-.173-.014-.26-.019q-.766-.065-1.517-.188l-.067-.014a20.392,20.392,0,0,1-3.12-.78c-.029-.01-.063-.019-.1-.034-.506-.173-1.006-.361-1.5-.573,0,0,0,0-.01,0-.462-.2-.92-.424-1.367-.655-.058-.029-.116-.058-.173-.091-.409-.221-.809-.457-1.208-.7l-.351-.221c-.366-.241-.722-.486-1.074-.751-.039-.029-.072-.058-.106-.082l.077-.043,6.346-3.462a3.4,3.4,0,0,0,1.772-2.98V29.179l-.183-.221A13.378,13.378,0,0,1,15.5,23.97l-.072-.318-.274-.178a1.335,1.335,0,0,1-.616-1.117V19.512a1.308,1.308,0,0,1,.448-.982l.265-.236V13.825l-.01-.106a4.813,4.813,0,0,1,1.122-3.5c1.16-1.324,3.149-1.993,5.908-1.993S27,8.89,28.159,10.2A4.89,4.89,0,0,1,29.29,13.72l0,4.574.265.236a1.308,1.308,0,0,1,.448.982v2.845a1.344,1.344,0,0,1-.948,1.266.8.8,0,1,0,.472,1.531,2.924,2.924,0,0,0,2.08-2.8V19.512a2.912,2.912,0,0,0-.713-1.9V13.864a6.462,6.462,0,0,0-1.512-4.7C27.9,7.47,25.506,6.618,22.261,6.618s-5.638.852-7.116,2.542a6.5,6.5,0,0,0-1.512,4.7V17.61a2.912,2.912,0,0,0-.713,1.9v2.845a2.909,2.909,0,0,0,1.074,2.263,15.163,15.163,0,0,0,2.48,5.128v2.321a1.8,1.8,0,0,1-.934,1.574L9.194,37.1a6.265,6.265,0,0,0-.6.38A20.461,20.461,0,1,1,42.728,22.266a.8.8,0,0,0,1.608,0A22.092,22.092,0,0,0,22.266.2Zm8.681,28.084a5.963,5.963,0,0,0-5.835,5.657,5.744,5.744,0,0,0,.178,2.176A9.013,9.013,0,0,0,28.2,40.749l6.688,5.72a.935.935,0,0,0,.616.231.965.965,0,0,0,.616-.226l6.688-5.725a8.981,8.981,0,0,0,2.913-4.627,5.636,5.636,0,0,0,.178-2.176,5.956,5.956,0,0,0-5.835-5.657,5.777,5.777,0,0,0-4.559,2.576A5.775,5.775,0,0,0,30.946,28.284Zm0,1.608a4.548,4.548,0,0,1,3.828,2.894l.732,1.651.732-1.651a4.554,4.554,0,0,1,3.828-2.894A4.437,4.437,0,0,1,44.317,34.2a4.186,4.186,0,0,1-.154,1.536,7.394,7.394,0,0,1-2.4,3.8L35.506,44.89l-6.254-5.359a7.391,7.391,0,0,1-2.4-3.8,4.343,4.343,0,0,1-.159-1.521l.014-.087A4.411,4.411,0,0,1,30.946,29.892Z" fill="#dd0023" stroke="#dd0023" stroke-width="0.4"/>
</svg>
