<svg xmlns="http://www.w3.org/2000/svg" width="46.454" height="36.28" viewBox="0 0 46.454 36.28">
  <g id="Group_80" data-name="Group 80" transform="translate(0.114 0.05)">
    <path id="Path_3634" data-name="Path 3634" d="M43.317,59.19a1.983,1.983,0,0,0-2,2,1.995,1.995,0,1,0,3.989,0,2.036,2.036,0,0,0-.586-1.422A1.964,1.964,0,0,0,43.317,59.19Z" transform="translate(-20.204 -29.116)" fill="none" stroke="#dd0023" stroke-width="0.1"/>
    <path id="Path_3635" data-name="Path 3635" d="M41.534,55.28a4.1,4.1,0,0,0-4.114,4.114,4.114,4.114,0,1,0,8.228,0,4.2,4.2,0,0,0-1.2-2.915A4.115,4.115,0,0,0,41.534,55.28Zm0,6.112a2,2,0,0,1-2-2,1.983,1.983,0,0,1,2-2,1.986,1.986,0,0,1,1.411.575,2.06,2.06,0,0,1,.586,1.422A2.006,2.006,0,0,1,41.534,61.392Z" transform="translate(-18.421 -27.328)" fill="#dd0023" stroke="#dd0023" stroke-width="0.1"/>
    <path id="Path_3636" data-name="Path 3636" d="M45.934,10A31.044,31.044,0,0,0,.293,10a1.1,1.1,0,0,0,0,1.5.967.967,0,0,0,1.418,0,29.116,29.116,0,0,1,42.806.005.967.967,0,0,0,1.418,0A1.111,1.111,0,0,0,45.934,10Z" transform="translate(0 0)" fill="#dd0023" stroke="#dd0023" stroke-width="0.1"/>
    <path id="Path_3637" data-name="Path 3637" d="M28.669,17.19a21.966,21.966,0,0,0-16.232,7.278,1.122,1.122,0,0,0,0,1.5.933.933,0,0,0,1.388,0,19.873,19.873,0,0,1,29.683-.005.933.933,0,0,0,1.388,0,1.122,1.122,0,0,0,0-1.5A21.961,21.961,0,0,0,28.669,17.19Z" transform="translate(-5.555 -8.517)" fill="#dd0023" stroke="#dd0023" stroke-width="0.1"/>
    <path id="Path_3638" data-name="Path 3638" d="M35.531,34.38A15.346,15.346,0,0,0,24.6,38.912a1.059,1.059,0,0,0,1.5,1.5,13.339,13.339,0,0,1,18.866,0,1.059,1.059,0,0,0,1.5-1.5A15.356,15.356,0,0,0,35.531,34.38Z" transform="translate(-12.417 -16.921)" fill="#dd0023" stroke="#dd0023" stroke-width="0.1"/>
  </g>
</svg>
