<svg xmlns="http://www.w3.org/2000/svg" width="27.925" height="28" viewBox="0 0 27.925 28">
  <g id="Group_1775" data-name="Group 1775" transform="translate(0 0.01)">
    <g id="Group_1758" data-name="Group 1758" transform="translate(15.364 -0.01)">
      <path id="Path_3725" data-name="Path 3725" d="M106.679,10.881a6.28,6.28,0,1,0-8.518,0,6.837,6.837,0,0,0,.809.633,6.257,6.257,0,0,0,6.9,0A6.683,6.683,0,0,0,106.679,10.881ZM97.1,6.272A5.325,5.325,0,1,1,102.42,11.6,5.331,5.331,0,0,1,97.1,6.272Z" transform="translate(-96.14 0.01)" fill="#dd0023"/>
      <path id="Path_3726" data-name="Path 3726" d="M130.795,18.06h-.855v3.6a.734.734,0,0,0,.734.732h2.811v-.855h-2.69V18.06Z" transform="translate(-124.538 -15.172)" fill="#dd0023"/>
    </g>
    <g id="Group_1760" data-name="Group 1760" transform="translate(7.839 4.791)">
      <g id="Group_1759" data-name="Group 1759">
        <rect id="Rectangle_2217" data-name="Rectangle 2217" width="6.212" height="1.278" fill="#dd0023"/>
      </g>
    </g>
    <g id="Group_1763" data-name="Group 1763" transform="translate(5.614 2.449)">
      <g id="Group_1762" data-name="Group 1762">
        <g id="Group_1761" data-name="Group 1761">
          <path id="Path_3727" data-name="Path 3727" d="M35.769,21.151h0a.639.639,0,0,1-.639-.639V16.019a.639.639,0,0,1,.639-.639h0a.639.639,0,0,1,.639.639v4.492A.639.639,0,0,1,35.769,21.151Z" transform="translate(-35.13 -15.38)" fill="#dd0023"/>
        </g>
      </g>
    </g>
    <g id="Group_1766" data-name="Group 1766" transform="translate(2.551 4.791)">
      <g id="Group_1765" data-name="Group 1765">
        <g id="Group_1764" data-name="Group 1764">
          <path id="Path_3728" data-name="Path 3728" d="M35.69,38.839h-.324v10.6H17.238V31.308h.837V30.03H16.6a.639.639,0,0,0-.639.639V50.075a.639.639,0,0,0,.639.639H36a.639.639,0,0,0,.639-.639V38.839Z" transform="translate(-15.96 -30.03)" fill="#dd0023"/>
        </g>
      </g>
    </g>
    <g id="Group_1769" data-name="Group 1769" transform="translate(0 7.945)">
      <g id="Group_1768" data-name="Group 1768">
        <g id="Group_1767" data-name="Group 1767">
          <path id="Path_3729" data-name="Path 3729" d="M19.406,69.815H.639A.639.639,0,0,1,0,69.176V50.409a.639.639,0,0,1,.639-.639h0a.639.639,0,0,1,.639.639v17.3a.831.831,0,0,0,.831.831h17.3a.639.639,0,0,1,.639.639h0A.639.639,0,0,1,19.406,69.815Z" transform="translate(0 -49.77)" fill="#dd0023"/>
        </g>
      </g>
    </g>
    <g id="Group_1774" data-name="Group 1774" transform="translate(5.394 10.277)">
      <g id="Group_1770" data-name="Group 1770" transform="translate(3.043)">
        <path id="Path_3730" data-name="Path 3730" d="M53.26,65.3h1.823a.47.47,0,0,0,0-.94H53.26a.47.47,0,1,0,0,.94" transform="translate(-52.79 -64.36)" fill="#dd0023"/>
        <path id="Path_3731" data-name="Path 3731" d="M72.27,65.3h1.823a.47.47,0,0,0,0-.94H72.27a.47.47,0,0,0,0,.94" transform="translate(-68.762 -64.36)" fill="#dd0023"/>
      </g>
      <g id="Group_1771" data-name="Group 1771" transform="translate(0 6.91)">
        <path id="Path_3732" data-name="Path 3732" d="M34.221,108.836l1.823-.006a.47.47,0,0,0,0-.94l-1.823.006a.47.47,0,1,0,0,.94" transform="translate(-33.75 -107.844)" fill="#dd0023"/>
        <path id="Path_3733" data-name="Path 3733" d="M53.221,108.766l1.823-.006a.47.47,0,1,0,0-.94l-1.823.006a.47.47,0,1,0,0,.94" transform="translate(-49.714 -107.785)" fill="#dd0023"/>
        <path id="Path_3734" data-name="Path 3734" d="M72.231,108.7l1.823-.006a.47.47,0,0,0,0-.94l-1.823.006a.47.47,0,0,0,0,.94" transform="translate(-65.686 -107.726)" fill="#dd0023"/>
        <path id="Path_3735" data-name="Path 3735" d="M91.241,108.626l1.823-.006a.47.47,0,0,0,0-.94l-1.823.006a.47.47,0,0,0,0,.94" transform="translate(-81.658 -107.667)" fill="#dd0023"/>
        <path id="Path_3736" data-name="Path 3736" d="M110.251,108.546l1.823-.006a.47.47,0,1,0,0-.94l-1.823.006a.47.47,0,1,0,0,.94" transform="translate(-97.63 -107.6)" fill="#dd0023"/>
      </g>
      <g id="Group_1772" data-name="Group 1772" transform="translate(0.005 3.461)">
        <path id="Path_3737" data-name="Path 3737" d="M34.25,87.05h1.823a.47.47,0,0,0,0-.94H34.25a.47.47,0,1,0,0,.94" transform="translate(-33.78 -86.096)" fill="#dd0023"/>
        <path id="Path_3738" data-name="Path 3738" d="M53.26,87.05h1.823a.47.47,0,0,0,0-.94H53.26a.47.47,0,1,0,0,.94" transform="translate(-49.752 -86.096)" fill="#dd0023"/>
        <path id="Path_3739" data-name="Path 3739" d="M72.27,87.05h1.823a.47.47,0,0,0,0-.94H72.27a.47.47,0,0,0,0,.94" transform="translate(-65.724 -86.096)" fill="#dd0023"/>
        <path id="Path_3740" data-name="Path 3740" d="M91.191,86.966l1.823-.006a.47.47,0,1,0,0-.94l-1.823.006a.47.47,0,1,0,0,.94" transform="translate(-81.621 -86.02)" fill="#dd0023"/>
        <path id="Path_3741" data-name="Path 3741" d="M110.29,87.05h1.823a.47.47,0,0,0,0-.94H110.29a.47.47,0,0,0,0,.94" transform="translate(-97.668 -86.096)" fill="#dd0023"/>
      </g>
      <g id="Group_1773" data-name="Group 1773" transform="translate(0.021 10.384)">
        <path id="Path_3742" data-name="Path 3742" d="M34.351,130.506l1.823-.006a.47.47,0,1,0,0-.94l-1.823.006a.47.47,0,0,0,0,.94" transform="translate(-33.88 -129.525)" fill="#dd0023"/>
        <path id="Path_3743" data-name="Path 3743" d="M53.361,130.436l1.823-.006a.47.47,0,0,0,0-.94l-1.823.006a.47.47,0,1,0,0,.94" transform="translate(-49.852 -129.466)" fill="#dd0023"/>
        <path id="Path_3744" data-name="Path 3744" d="M72.371,130.356l1.823-.006a.47.47,0,0,0,0-.94l-1.823.006a.47.47,0,0,0,0,.94" transform="translate(-65.824 -129.399)" fill="#dd0023"/>
        <path id="Path_3745" data-name="Path 3745" d="M91.371,130.286l1.823-.006a.47.47,0,0,0,0-.94l-1.823.006a.47.47,0,0,0,0,.94" transform="translate(-81.788 -129.34)" fill="#dd0023"/>
      </g>
    </g>
  </g>
</svg>
